<?xml version="1.0" encoding="UTF-8"?>
<svg version="1.1" xmlns="http://www.w3.org/2000/svg" width="1024" height="1536">
<path d="M0 0 C337.92 0 675.84 0 1024 0 C1024 506.88 1024 1013.76 1024 1536 C686.08 1536 348.16 1536 0 1536 C0 1029.12 0 522.24 0 0 Z " fill="#FEFEFE" transform="translate(0,0)"/>
<path d="M0 0 C3.40999855 3.44362773 4.87975213 6.17205511 5.19873047 11.02099609 C4.95426682 15.91567487 3.7931126 20.16631147 2.421875 24.8515625 C2.143936 25.82834457 1.86599701 26.80512665 1.57963562 27.81150818 C0.64541936 31.08532163 -0.30221442 34.35509132 -1.25 37.625 C-1.92639575 39.98344311 -2.60207688 42.34209128 -3.27709961 44.70092773 C-5.31218837 51.79978527 -7.36346184 58.89388412 -9.41747284 65.9872818 C-10.38592354 69.33342339 -11.35229122 72.68016632 -12.31884766 76.02685547 C-16.63402585 90.96476547 -20.96459673 105.89818034 -25.30306244 120.82934189 C-30.27973234 137.95705735 -35.24433136 155.08825959 -40.20480347 172.22067261 C-41.1317659 175.42205799 -42.05910502 178.62333382 -42.98684692 181.82449341 C-49.37550267 203.86854613 -55.71014745 225.92754802 -62 248 C-60.9377697 247.8555545 -60.9377697 247.8555545 -59.8540802 247.70819092 C-39.46282645 244.94344695 -19.05470102 242.33537539 1.37280273 239.85302734 C4.68991977 239.44940094 8.00623254 239.0398812 11.32202148 238.62548828 C15.42746031 238.11246447 19.53404252 237.60971527 23.64159203 237.11388397 C25.17144279 236.92759233 26.70089151 236.73795947 28.22985268 236.54450226 C36.17357791 235.54214375 44.06839751 234.81121001 52.07885742 234.68652344 C53.09932521 234.65677366 53.09932521 234.65677366 54.14040852 234.62642288 C62.84128173 234.61776536 70.45659686 238.80946688 76.82421875 244.54296875 C79.76495418 247.86383515 80.07165217 249.55756542 80 254 C77.85176324 263.7182139 72.10983613 272.63751278 67.43261719 281.31982422 C65.46412765 285.0025233 63.54509939 288.71012347 61.62451172 292.41796875 C57.30696554 300.7521966 52.90913508 309.03168593 48.375 317.25 C43.02236998 326.96810945 37.93438765 336.81477434 32.875 346.6875 C32.48176544 347.45478424 32.08853088 348.22206848 31.68338013 349.01260376 C30.14391403 352.01692332 28.60464194 355.02134218 27.06568909 358.02592468 C21.67398639 368.54683259 16.15339215 378.9959709 10.55859375 389.41015625 C9.61219575 391.17185003 8.66579912 392.93354453 7.71948242 394.69528198 C7.07412336 395.8966355 6.42861598 397.09790936 5.78295898 398.29910278 C0.43963332 408.24476671 -4.77420201 418.25300298 -9.94702148 428.28857422 C-13.47810878 435.11988725 -17.09669905 441.89260454 -20.8125 448.625 C-26.28314098 458.54105914 -31.45545188 468.60025692 -36.6159668 478.6796875 C-40.90738674 487.05723234 -45.24651212 495.39268209 -49.8125 503.625 C-56.36826389 515.46147247 -62.47738053 527.52851173 -68.62036133 539.58251953 C-73.97779905 550.09091213 -79.42176189 560.54953984 -84.93280029 570.97817993 C-87.21989385 575.31110059 -89.48524795 579.65537362 -91.75 584 C-92.23968262 584.93875977 -92.72936523 585.87751953 -93.23388672 586.84472656 C-97.21042101 594.47318011 -101.16830653 602.11124217 -105.125 609.75 C-111.99360599 623.00460325 -118.92425714 636.22369882 -125.9375 649.40234375 C-127.02461285 651.44544592 -128.11169574 653.48856403 -129.19873047 655.53170776 C-129.94114225 656.92704565 -130.68365525 658.32232969 -131.42626953 659.71755981 C-136.27351308 668.82701185 -141.07321238 677.95876225 -145.8125 687.125 C-150.10638439 695.42943931 -154.52916344 703.64823719 -159.05102539 711.83032227 C-162.36850321 717.88408638 -165.55723908 723.99651155 -168.6953125 730.14453125 C-169.31770309 731.36313339 -169.31770309 731.36313339 -169.95266724 732.60635376 C-172.02742973 736.67300812 -174.09416711 740.74352417 -176.15087891 744.81933594 C-189.96634773 772.07560645 -189.96634773 772.07560645 -198 777 C-198.65742188 777.40863281 -199.31484375 777.81726562 -199.9921875 778.23828125 C-212.59183985 784.58170484 -230.88148366 781.54818432 -244 778 C-244.33 777.34 -244.66 776.68 -245 776 C-243.22880197 776.14133499 -241.45804713 776.28823208 -239.6875 776.4375 C-238.70136719 776.51871094 -237.71523438 776.59992187 -236.69921875 776.68359375 C-234 777 -234 777 -231 778 C-231.38671875 777.5153125 -231.7734375 777.030625 -232.171875 776.53125 C-239.41237254 767.21179771 -239.41237254 767.21179771 -241 762 C-240.8496933 761.40451355 -240.6993866 760.8090271 -240.54452515 760.19549561 C-239.44777951 755.77347719 -239.83854598 751.10959882 -239.8515625 746.578125 C-239.85370758 745.3937384 -239.85585266 744.20935181 -239.85806274 742.98907471 C-239.94251373 728.2530279 -240.56147469 713.53576176 -241.16748047 698.81365967 C-241.49232461 690.92111191 -241.79880844 683.02783692 -242.10660553 675.13460922 C-242.17616957 673.35192065 -242.24590737 671.56923885 -242.31581879 669.78656387 C-243.1965736 647.32287008 -243.89550258 624.8546061 -244.58203125 602.38420105 C-244.93106617 591.01537604 -245.30619435 579.6474588 -245.68418121 568.2795639 C-245.89450102 561.94584254 -246.10305899 555.6120628 -246.31181717 549.27828979 C-246.48373527 544.0679365 -246.65681189 538.85762688 -246.83251953 533.6473999 C-246.99863595 528.72052533 -247.16156288 523.79355441 -247.3223381 518.86650276 C-247.38213771 517.05116998 -247.44306003 515.23587372 -247.5052681 513.42062187 C-247.93213586 500.94233458 -248.07009891 488.48544612 -248 476 C-249.08503815 476.13031616 -250.17007629 476.26063232 -251.28799438 476.39489746 C-262.9516636 477.79117276 -274.62809798 479.04091334 -286.3125 480.25 C-287.81547638 480.40557877 -287.81547638 480.40557877 -289.34881592 480.56430054 C-294.82657265 481.13069021 -300.30456459 481.69475413 -305.78271484 482.25732422 C-310.80943852 482.77377614 -315.83574991 483.2940919 -320.86181641 483.81689453 C-326.95172748 484.45020151 -333.04221505 485.07766008 -339.13333607 485.69922447 C-342.43575991 486.03634729 -345.73780302 486.37646095 -349.03945923 486.72106934 C-352.75742083 487.10855023 -356.47621252 487.48690426 -360.1953125 487.86328125 C-361.82712212 488.03634544 -361.82712212 488.03634544 -363.49189758 488.21290588 C-387.96745011 490.6480658 -387.96745011 490.6480658 -395 485 C-399.69551373 480.52852669 -403.49566527 476.15525525 -404.30187988 469.51278687 C-404.3364055 462.37008958 -403.04277365 456.22433949 -400.96875 449.4140625 C-400.65240601 448.33202545 -400.33606201 447.2499884 -400.01013184 446.13516235 C-399.34656591 443.87084073 -398.67661957 441.6083797 -398.00048828 439.34777832 C-397.05211421 436.17438169 -396.12182846 432.99639988 -395.19921875 429.81542969 C-393.6534516 424.49188274 -392.09179592 419.17315714 -390.525177 413.85571289 C-388.66744886 407.54829642 -386.81644859 401.23890358 -384.96484375 394.9296875 C-384.76705259 394.25588295 -384.56926144 393.5820784 -384.36547661 392.88785553 C-379.24165449 375.43189572 -374.14845654 357.96702506 -369.0625 340.5 C-368.82425381 339.681828 -368.58600761 338.86365601 -368.34054184 338.02069092 C-358.45950209 304.08508293 -348.64904308 270.12917234 -338.84576416 236.17103577 C-338.44206982 234.77266322 -338.44206982 234.77266322 -338.03022003 233.34604073 C-337.49027267 231.47569481 -336.95033023 229.60534748 -336.41039276 227.7349987 C-331.22060878 209.75807413 -326.02145836 191.78387783 -320.8125 173.8125 C-320.51703215 172.79301836 -320.51703215 172.79301836 -320.21559525 171.75294113 C-315.13391658 154.21972427 -310.03857512 136.69050846 -304.93359375 119.1640625 C-304.6757995 118.27893919 -304.41800526 117.39381588 -304.15239906 116.48187065 C-301.62625753 107.80860055 -299.09976469 99.13543378 -296.57020283 90.46316051 C-295.86987804 88.06151129 -295.17025401 85.65965865 -294.47065735 83.25779724 C-293.57392306 80.17993038 -292.67345099 77.10319356 -291.77018738 74.02723694 C-289.69874993 66.95727952 -287.68258133 59.88072437 -285.79882812 52.75830078 C-285.45027578 51.46246325 -285.10118833 50.16676951 -284.75152588 48.87123108 C-284.11931536 46.5115375 -283.50454027 44.14706267 -282.91204834 41.77708435 C-280.66759566 33.47052192 -277.36820181 27.92784749 -270.14941406 23.08935547 C-265.99560979 21.65258999 -261.9641462 21.07390529 -257.609375 20.5703125 C-256.69003174 20.4550975 -255.77068848 20.33988251 -254.82348633 20.22117615 C-251.80020166 19.84508108 -248.7752505 19.4849107 -245.75 19.125 C-243.61349773 18.8627847 -241.47710574 18.59966941 -239.34082031 18.33569336 C-233.91126836 17.66780623 -228.48018889 17.01347777 -223.04833984 16.36456299 C-220.24159576 16.02889339 -217.43517488 15.69069262 -214.62890625 15.35107422 C-203.43109336 13.99643742 -192.22972252 12.6729292 -181.02740479 11.35614014 C-170.49685692 10.11733957 -159.96710021 8.87182631 -149.4375 7.625 C-148.19733124 7.47816772 -146.95716248 7.33133545 -145.67941284 7.18005371 C-127.9393907 5.07800492 -110.20398335 2.94034862 -92.47314453 0.76217651 C-90.04350412 0.46371754 -87.61381698 0.16563875 -85.18408203 -0.13204956 C-74.07855918 -1.49284018 -62.97446066 -2.85802558 -51.8828125 -4.328125 C-50.4078143 -4.52137825 -48.93279882 -4.71449965 -47.45776367 -4.9074707 C-44.92993756 -5.23829847 -42.40511963 -5.58168324 -39.88012695 -5.93432617 C-25.25921139 -7.85691477 -12.51518 -8.94183362 0 0 Z " fill="#009BFE" transform="translate(679,359)"/>
<path d="M0 0 C-0.64453125 0.28617187 -1.2890625 0.57234375 -1.953125 0.8671875 C-4.19884128 1.81418662 -4.19884128 1.81418662 -4.75 4.125 C-4.8325 4.74375 -4.915 5.3625 -5 6 C-4.34 6 -3.68 6 -3 6 C-3 6.66 -3 7.32 -3 8 C-1.741875 8.144375 -0.48375 8.28875 0.8125 8.4375 C3.42667123 8.73748686 5.47439892 9.15813297 8 10 C7.56022827 10.84872681 7.56022827 10.84872681 7.11157227 11.71459961 C2.57352001 21.04486694 0.10489982 31.31272773 -2.68713379 41.26434326 C-3.99395815 45.91986518 -5.31514843 50.57130235 -6.63671875 55.22265625 C-6.91085602 56.18804321 -7.18499329 57.15343018 -7.46743774 58.14807129 C-10.97482162 70.4685181 -14.62686142 82.74621656 -18.28295898 95.02319336 C-21.86506946 107.06660438 -25.33969589 119.13865147 -28.78222656 131.22265625 C-32.54456076 144.42753682 -36.3422049 157.62231286 -40.13623047 170.81811523 C-41.04602853 173.98265149 -41.95518147 177.14737198 -42.86376953 180.31225586 C-47.57595792 196.72551488 -52.3154867 213.12800497 -57.19622803 229.49212646 C-59.69183746 237.88827579 -62.06633325 246.31476926 -64.41070557 254.75421143 C-67.27301779 265.03584476 -70.28079745 275.2727277 -73.30889893 285.50656128 C-74.95206769 291.06050155 -76.58935171 296.616176 -78.2265625 302.171875 C-78.55187958 303.27554916 -78.87719666 304.37922333 -79.21237183 305.51634216 C-82.04873593 315.14751307 -84.84429806 324.79013757 -87.625 334.4375 C-91.25754327 347.03650966 -94.94455288 359.61848066 -98.66854858 372.19076538 C-99.49254033 374.97479591 -100.31461877 377.75938368 -101.13598633 380.54418945 C-101.67787414 382.38102892 -102.21978488 384.21786162 -102.76171875 386.0546875 C-103.02892227 386.96045029 -103.29612579 387.86621307 -103.57142639 388.79942322 C-105.18755323 394.27078153 -106.81979592 399.737035 -108.46401978 405.20001221 C-109.50926712 408.681266 -110.54360922 412.16569987 -111.57568359 415.65087891 C-112.05986786 417.27669843 -112.54882299 418.90110618 -113.04296875 420.52392578 C-117.00126178 432.53721653 -117.00126178 432.53721653 -117 445 C-115.11484777 447.57637471 -113.80665143 448.59667428 -111 450 C-101.40647228 450.66273042 -91.80997617 449.41865684 -82.28515625 448.390625 C-80.66464161 448.22031919 -79.04407025 448.05055246 -77.42344666 447.88128662 C-73.16117587 447.4346003 -68.89973589 446.98042382 -64.63842773 446.5246582 C-60.43848272 446.07683922 -56.23775498 445.63650155 -52.03710938 445.1953125 C-33.14600081 443.21135556 -33.14600081 443.21135556 -14.26530933 441.13130569 C-10.91269213 440.7525557 -7.55955474 440.37851434 -4.20641899 440.0043869 C-1.8904752 439.74359542 0.42447287 439.47501539 2.73948669 439.20611572 C25.2821366 436.64798477 25.2821366 436.64798477 30.08961487 439.03948975 C32.24046595 440.76950023 33.76393358 442.52786716 35 445 C35.2066252 448.07610421 35.35576202 451.13508796 35.46484375 454.21508789 C35.50239777 455.17364685 35.53995178 456.13220581 35.5786438 457.11981201 C35.70281484 460.32060353 35.82026101 463.52160386 35.9375 466.72265625 C36.02303353 468.97571519 36.1088953 471.22876169 36.19506836 473.48179626 C36.37609659 478.24093451 36.55396137 483.00017737 36.72949219 487.75952148 C36.94980713 493.72991708 37.17638198 499.7000524 37.40518856 505.67012787 C38.27469617 528.40119505 39.08162566 551.12957804 39.59099007 573.87178612 C40.00476491 592.33301411 40.65608087 610.78302772 41.33994293 629.23597336 C41.60928247 636.52190589 41.87356083 643.8080254 42.1384201 651.09412193 C42.20481028 652.91954605 42.27130242 654.74496645 42.33789825 656.57038307 C42.78527902 668.83913726 43.20920262 681.10839759 43.60546875 693.37890625 C43.65118353 694.78454707 43.69693386 696.19018674 43.74272156 697.5958252 C43.95138194 704.01343916 44.1556326 710.43115753 44.35327148 716.84912109 C44.42544329 719.08561764 44.49777939 721.32210889 44.5703125 723.55859375 C44.61390144 725.05550499 44.61390144 725.05550499 44.65837097 726.58265686 C44.68876968 727.49567062 44.7191684 728.40868439 44.75048828 729.34936523 C44.77474884 730.13302963 44.7990094 730.91669403 44.82400513 731.72410583 C45.0184212 734.23821552 45.34060374 736.56380942 46 739 C48.18023811 740.30758305 48.18023811 740.30758305 51 741 C52.09957031 741.35320313 53.19914063 741.70640625 54.33203125 742.0703125 C56.05486328 742.59238281 56.05486328 742.59238281 57.8125 743.125 C58.97394531 743.47820313 60.13539063 743.83140625 61.33203125 744.1953125 C62.21246094 744.46085937 63.09289062 744.72640625 64 745 C64 745.66 64 746.32 64 747 C64.99 747 65.98 747 67 747 C65.56767675 750.5198582 63.91637039 752.06793624 60.75 754.125 C60.00234375 754.62257813 59.2546875 755.12015625 58.484375 755.6328125 C52.72516694 758.80218801 47.62070894 759.35586995 41.1875 759.3125 C40.36523926 759.30976074 39.54297852 759.30702148 38.69580078 759.30419922 C32.83247669 759.20657066 27.15039265 758.63030703 21.375 757.625 C20.64692139 757.49907471 19.91884277 757.37314941 19.16870117 757.2434082 C17.42906855 756.90599305 15.71058806 756.46266526 14 756 C13.67 755.34 13.34 754.68 13 754 C14.77119803 754.14133499 16.54195287 754.28823208 18.3125 754.4375 C19.29863281 754.51871094 20.28476562 754.59992187 21.30078125 754.68359375 C24 755 24 755 27 756 C26.61328125 755.5153125 26.2265625 755.030625 25.828125 754.53125 C18.58762746 745.21179771 18.58762746 745.21179771 17 740 C17.1503067 739.40451355 17.3006134 738.8090271 17.45547485 738.19549561 C18.55222049 733.77347719 18.16145402 729.10959882 18.1484375 724.578125 C18.14629242 723.3937384 18.14414734 722.20935181 18.14193726 720.98907471 C18.05748627 706.2530279 17.43852531 691.53576176 16.83251953 676.81365967 C16.50767539 668.92111191 16.20119156 661.02783692 15.89339447 653.13460922 C15.82383043 651.35192065 15.75409263 649.56923885 15.68418121 647.78656387 C14.8034264 625.32287008 14.10449742 602.8546061 13.41796875 580.38420105 C13.06893383 569.01537604 12.69380565 557.6474588 12.31581879 546.2795639 C12.10549898 539.94584254 11.89694101 533.6120628 11.68818283 527.27828979 C11.51626473 522.0679365 11.34318811 516.85762688 11.16748047 511.6473999 C11.00136405 506.72052533 10.83843712 501.79355441 10.6776619 496.86650276 C10.61786229 495.05116998 10.55693997 493.23587372 10.4947319 491.42062187 C10.06786414 478.94233458 9.92990109 466.48544612 10 454 C8.91496185 454.13031616 7.82992371 454.26063232 6.71200562 454.39489746 C-4.9516636 455.79117276 -16.62809798 457.04091334 -28.3125 458.25 C-29.81547638 458.40557877 -29.81547638 458.40557877 -31.34881592 458.56430054 C-36.82657265 459.13069021 -42.30456459 459.69475413 -47.78271484 460.25732422 C-52.80943852 460.77377614 -57.83574991 461.2940919 -62.86181641 461.81689453 C-68.95172748 462.45020151 -75.04221505 463.07766008 -81.13333607 463.69922447 C-84.43575991 464.03634729 -87.73780302 464.37646095 -91.03945923 464.72106934 C-94.75742083 465.10855023 -98.47621252 465.48690426 -102.1953125 465.86328125 C-103.82712212 466.03634544 -103.82712212 466.03634544 -105.49189758 466.21290588 C-129.96745011 468.6480658 -129.96745011 468.6480658 -137 463 C-141.69551373 458.52852669 -145.49566527 454.15525525 -146.30187988 447.51278687 C-146.3364055 440.37008958 -145.04277365 434.22433949 -142.96875 427.4140625 C-142.65240601 426.33202545 -142.33606201 425.2499884 -142.01013184 424.13516235 C-141.34656591 421.87084073 -140.67661957 419.6083797 -140.00048828 417.34777832 C-139.05211421 414.17438169 -138.12182846 410.99639988 -137.19921875 407.81542969 C-135.6534516 402.49188274 -134.09179592 397.17315714 -132.525177 391.85571289 C-130.66744886 385.54829642 -128.81644859 379.23890358 -126.96484375 372.9296875 C-126.76705259 372.25588295 -126.56926144 371.5820784 -126.36547661 370.88785553 C-121.24165449 353.43189572 -116.14845654 335.96702506 -111.0625 318.5 C-110.82425381 317.681828 -110.58600761 316.86365601 -110.34054184 316.02069092 C-100.45950209 282.08508293 -90.64904308 248.12917234 -80.84576416 214.17103577 C-80.44206982 212.77266322 -80.44206982 212.77266322 -80.03022003 211.34604073 C-79.49027267 209.47569481 -78.95033023 207.60534748 -78.41039276 205.7349987 C-73.22060878 187.75807413 -68.02145836 169.78387783 -62.8125 151.8125 C-62.51703215 150.79301836 -62.51703215 150.79301836 -62.21559525 149.75294113 C-57.13391658 132.21972427 -52.03857512 114.69050846 -46.93359375 97.1640625 C-46.6757995 96.27893919 -46.41800526 95.39381588 -46.15239906 94.48187065 C-43.62625753 85.80860055 -41.09976469 77.13543378 -38.57020283 68.46316051 C-37.86987804 66.06151129 -37.17025401 63.65965865 -36.47065735 61.25779724 C-35.57392306 58.17993038 -34.67345099 55.10319356 -33.77018738 52.02723694 C-31.69874993 44.95727952 -29.68258133 37.88072437 -27.79882812 30.75830078 C-27.45027578 29.46246325 -27.10118833 28.16676951 -26.75152588 26.87123108 C-26.11931536 24.5115375 -25.50454027 22.14706267 -24.91204834 19.77708435 C-22.67417792 11.49488238 -19.21973246 5.93546606 -12.125 1 C-8.01029178 -0.31670663 -4.2811274 -0.25686764 0 0 Z " fill="#026EC3" transform="translate(421,381)"/>
<path d="M0 0 C8.03501094 -0.63019694 8.03501094 -0.63019694 12.0625 2 C12.701875 2.66 13.34125 3.32 14 4 C13.45340327 8.59107144 12.2376362 11.90004469 10.0078125 15.9375 C9.39059326 17.06873291 8.77337402 18.19996582 8.13745117 19.36547852 C7.80925385 19.9580545 7.48105652 20.55063049 7.14291382 21.16116333 C5.40872387 24.29393549 3.70346959 27.44240151 1.99609375 30.58984375 C1.65284561 31.22115707 1.30959747 31.8524704 0.95594788 32.50291443 C-2.09263016 38.12777352 -4.98179549 43.82494943 -7.8125 49.5625 C-11.4501515 56.91931714 -15.17725674 64.21573473 -19.02075195 71.46704102 C-22.72334056 78.4559937 -26.36526826 85.47554726 -30 92.5 C-33.95404025 100.13846286 -37.91884937 107.77032051 -41.9375 115.375 C-47.73466684 126.3514841 -53.41770436 137.38712393 -59.11425781 148.41601562 C-62.42374126 154.82243166 -65.7423561 161.22410294 -69.0625 167.625 C-69.63653564 168.73182129 -70.21057129 169.83864258 -70.80200195 170.97900391 C-73.11096193 175.4307696 -75.42023501 179.88237285 -77.72949219 184.33398438 C-79.46562928 187.68091985 -81.20160016 191.02794147 -82.9375 194.375 C-83.50960205 195.4779541 -84.0817041 196.5809082 -84.67114258 197.71728516 C-87.73965957 203.63474112 -90.80429381 209.55417639 -93.86328125 215.4765625 C-95.15876635 217.98442037 -96.45432538 220.49224003 -97.75 223 C-98.06977814 223.61893127 -98.38955627 224.23786255 -98.71902466 224.87554932 C-102.78264665 232.73848429 -106.87540431 240.58488074 -111.01708984 248.40698242 C-113.70246091 253.49456576 -116.3437327 258.60376305 -118.96875 263.72265625 C-119.50183273 264.761978 -119.50183273 264.761978 -120.04568481 265.82229614 C-120.40717621 266.52708099 -120.7686676 267.23186584 -121.14111328 267.95800781 C-127.0925144 279.56038266 -133.08676755 291.118816 -139.3996582 302.5300293 C-144.34494157 311.52107254 -148.99740474 320.65943982 -153.67208862 329.79293823 C-158.43813722 339.09981681 -163.30864621 348.32722135 -168.3996582 357.46166992 C-171.29812283 362.67690998 -174.03188922 367.9472872 -176.66674805 373.29980469 C-180.14615993 380.35035132 -183.75987755 387.33092724 -187.375 394.3125 C-187.70414398 394.94829987 -188.03328796 395.58409973 -188.37240601 396.23916626 C-192.62558241 404.45150869 -196.90302176 412.65061748 -201.2265625 420.82617188 C-203.60766606 425.33465484 -205.96291511 429.85564486 -208.30078125 434.38671875 C-214.17842968 445.77816505 -220.11269938 457.12117256 -226.30664062 468.34399414 C-231.53206112 477.86654437 -236.46938256 487.5371776 -241.39404297 497.21777344 C-244.24754744 502.81314863 -247.13231751 508.3925522 -250.2265625 513.859375 C-250.88906006 515.0345166 -250.88906006 515.0345166 -251.56494141 516.23339844 C-253 518 -253 518 -255.03271484 518.87988281 C-257 519 -257 519 -259.25 517.0625 C-259.8275 516.381875 -260.405 515.70125 -261 515 C-251.26378556 495.23932792 -241.0908289 475.68392933 -230.79296875 456.21069336 C-227.02740289 449.07934129 -223.32620177 441.91488648 -219.625 434.75 C-217.08387464 429.8330535 -214.54213474 424.91642471 -212 420 C-211.45520996 418.94635254 -210.91041992 417.89270508 -210.34912109 416.80712891 C-205.15273392 406.76817194 -199.89847547 396.77272547 -194.4375 386.875 C-187.55963938 374.39351745 -181.12279068 361.68572731 -174.63421631 348.99935913 C-174.03604095 347.82985214 -174.03604095 347.82985214 -173.42578125 346.63671875 C-173.03360413 345.86985748 -172.641427 345.10299622 -172.23736572 344.31289673 C-168.64942966 337.30292911 -164.99582924 330.32926396 -161.30859375 323.37109375 C-159.5761781 320.10077132 -157.86433335 316.82028272 -156.16015625 313.53515625 C-151.30473547 304.17766566 -146.40191589 294.85756718 -141.3125 285.625 C-135.3784812 274.84546282 -129.75766807 263.91131524 -124.14453125 252.96264648 C-123.42059932 251.55060495 -122.69664143 250.13857673 -121.97265625 248.7265625 C-121.44770065 247.7025811 -121.44770065 247.7025811 -120.91213989 246.65791321 C-118.25374713 241.47881636 -115.54722852 236.32670382 -112.8125 231.1875 C-108.36174907 222.81740246 -104.16628906 214.32321446 -99.95443726 205.83151245 C-96.16181048 198.19529742 -92.26676807 190.70817275 -87.91992188 183.37255859 C-85.91488321 179.85048279 -84.08588096 176.26316893 -82.296875 172.62890625 C-78.15106271 164.27424203 -73.9024308 155.97538492 -69.625 147.6875 C-69.25294434 146.96578613 -68.88088867 146.24407227 -68.49755859 145.50048828 C-63.99984587 136.77619473 -59.48017502 128.0648756 -54.8828125 119.39257812 C-52.23182871 114.37780045 -49.62732221 109.34030752 -47.0390625 104.29296875 C-46.68295395 103.59869278 -46.3268454 102.90441681 -45.95994568 102.18910217 C-45.59764359 101.48273117 -45.23534149 100.77636017 -44.86206055 100.04858398 C-44.11641503 98.59486812 -43.37072792 97.14117359 -42.625 95.6875 C-42.25557281 94.96732697 -41.88614563 94.24715393 -41.50552368 93.50515747 C-37.01131045 84.75190977 -32.44924114 76.04919348 -27.6875 67.4375 C-23.02133193 58.99811173 -18.65704967 50.43430314 -14.38012695 41.79174805 C-10.05191372 33.05430648 -5.54517233 24.419435 -0.95458984 15.81738281 C-0.6395752 15.21764648 -0.32456055 14.61791016 0 14 C0.36641602 13.30777344 0.73283203 12.61554687 1.11035156 11.90234375 C2.1449206 9.6901149 2.20586172 8.17585173 2.125 5.75 C2.063125 3.89375 2.063125 3.89375 2 2 C1.34 2 0.68 2 0 2 C0 1.34 0 0.68 0 0 Z " fill="#1AACFE" transform="translate(729,604)"/>
<path d="M0 0 C2.5625 1.625 2.5625 1.625 4 4 C3.53979739 10.52246587 1.50798089 16.72195687 -0.2890625 22.98046875 C-0.79182709 24.75154999 -0.79182709 24.75154999 -1.30474854 26.55841064 C-2.21699631 29.76791595 -3.13335969 32.97618747 -4.05184174 36.18391037 C-4.82170491 38.87512145 -5.58832398 41.56725206 -6.35492897 44.25939274 C-8.70747928 52.52069294 -11.07050695 60.77897342 -13.43722534 69.03622437 C-13.98126947 70.9346407 -14.5249431 72.8331632 -15.06860352 74.73168945 C-22.00537361 98.95514785 -28.96564647 123.17131226 -36.23779297 147.29663086 C-39.33359705 157.59243475 -42.23995371 167.93745854 -45.12646484 178.29370117 C-47.02997069 185.11923652 -48.95962742 191.93721465 -50.89453125 198.75390625 C-51.21710907 199.89119675 -51.53968689 201.02848724 -51.87203979 202.20024109 C-53.18882148 206.8423148 -54.5061247 211.48423919 -55.82495117 216.12573242 C-56.80758694 219.58481005 -57.78867475 223.04432373 -58.76953125 226.50390625 C-59.06535599 227.54349991 -59.36118073 228.58309357 -59.66596985 229.65419006 C-63.3883707 241.63321688 -63.3883707 241.63321688 -64 254 C-62.16343011 256.96731398 -62.16343011 256.96731398 -60 259 C-62.45382134 260.22691067 -64.19984103 260.20175931 -66.9375 260.25 C-67.81277344 260.27578125 -68.68804688 260.3015625 -69.58984375 260.328125 C-72 260 -72 260 -73.81640625 258.921875 C-76.13239615 255.16125774 -75.31434734 251.47021172 -74.43457031 247.35546875 C-73.5561871 243.88646737 -72.59969466 240.44278392 -71.625 237 C-71.2333851 235.59234323 -70.84229592 234.18454013 -70.45166016 232.77661133 C-68.98517335 227.51279427 -67.49293953 222.25636493 -66 217 C-65.68748291 215.89831482 -65.37496582 214.79662964 -65.05297852 213.66156006 C-53.60232852 173.30518766 -42.06680641 132.96924932 -30.28242493 92.70909119 C-27.14746033 81.99457817 -24.08638422 71.26370337 -21.125 60.5 C-20.27846081 57.42417004 -19.43100736 54.34859579 -18.58203125 51.2734375 C-18.37061996 50.50756317 -18.15920868 49.74168884 -17.94139099 48.9526062 C-16.44473394 43.55206404 -14.89518706 38.16839937 -13.32421875 32.7890625 C-12.69013851 30.60086284 -12.05694675 28.41240797 -11.42401123 26.22387695 C-11.02021789 24.83794568 -10.6119761 23.4533018 -10.19903564 22.07006836 C-9.6280575 20.15677326 -9.07342708 18.23862258 -8.51953125 16.3203125 C-8.20089111 15.24023926 -7.88225098 14.16016602 -7.55395508 13.04736328 C-6.93661094 9.65129035 -7.05018091 7.31384619 -8 4 C-8.99 3.34 -9.98 2.68 -11 2 C-11 1.34 -11 0.68 -11 0 C-7.14653202 -1.28448933 -3.87429262 -0.98802242 0 0 Z " fill="#1BACFE" transform="translate(665,362)"/>
<path d="M0 0 C4.87916511 -0.1742559 8.75457887 0.10217476 13.484375 1.43359375 C16.87628843 2.19730097 20.29964207 2.55108567 23.75 2.9375 C29.52193416 3.60379748 34.98811175 4.62690989 40.60546875 6.1484375 C45.06090649 7.26614225 49.55378691 8.12662346 54.0625 9 C61.13382558 10.37761656 68.09800802 11.9104061 75 14 C71.36322636 15.25185977 68.57630271 14.78070692 64.828125 14.109375 C63.61487549 13.89603516 62.40162598 13.68269531 61.15161133 13.46289062 C59.86407959 13.22763672 58.57654785 12.99238281 57.25 12.75 C55.91507048 12.51173694 54.58002742 12.27410917 53.24487305 12.03710938 C49.49460973 11.36878825 45.7470984 10.68585522 42 10 C40.75887451 9.77473633 40.75887451 9.77473633 39.49267578 9.54492188 C34.98939494 8.72594864 30.49409428 7.86761117 26 7 C23.75393761 6.56884701 21.50784055 6.13787461 19.26171875 5.70703125 C12.84054404 4.47447038 6.42006958 3.23830326 0 2 C0 1.34 0 0.68 0 0 Z " fill="#C8D3E2" transform="translate(360,1122)"/>
<path d="M0 0 C5.19672131 0 5.19672131 0 8 1 C9.9019877 3.19969012 10.77208183 5.30802555 12 8 C12.66 8.66 13.32 9.32 14 10 C11.54617866 11.22691067 9.80015897 11.20175931 7.0625 11.25 C6.18722656 11.27578125 5.31195312 11.3015625 4.41015625 11.328125 C2 11 2 11 0.19921875 9.7109375 C-1.74794383 6.93290099 -1.24255211 4.27445351 -1 1 C-0.67 0.67 -0.34 0.34 0 0 Z " fill="#7CD8FE" transform="translate(591,611)"/>
<path d="M0 0 C3.33523377 2.22348918 3.4222666 2.61229064 4.375 6.25 C5.99590195 11.42857391 8.17336087 15.32393022 12.99609375 18.18359375 C14.3599784 18.86678734 15.73841039 19.52209644 17.1328125 20.140625 C19 21 19 21 22 23 C4.29018736 22.1742664 4.29018736 22.1742664 -3 20 C-3.33 19.34 -3.66 18.68 -4 18 C-2.22880197 18.14133499 -0.45804713 18.28823208 1.3125 18.4375 C2.29863281 18.51871094 3.28476562 18.59992188 4.30078125 18.68359375 C7 19 7 19 10 20 C9.61328125 19.5153125 9.2265625 19.030625 8.828125 18.53125 C0 7.16831683 0 7.16831683 0 0 Z " fill="#7E9BBA" transform="translate(438,1117)"/>
<path d="M0 0 C-0.64453125 0.28617187 -1.2890625 0.57234375 -1.953125 0.8671875 C-4.19884128 1.81418662 -4.19884128 1.81418662 -4.75 4.125 C-4.8325 4.74375 -4.915 5.3625 -5 6 C-4.34 6 -3.68 6 -3 6 C-3 6.66 -3 7.32 -3 8 C-1.741875 8.144375 -0.48375 8.28875 0.8125 8.4375 C3.42667123 8.73748686 5.47439892 9.15813297 8 10 C8 10.66 8 11.32 8 12 C0.07675457 11.73589182 -6.33661351 9.34850871 -13 5 C-13.33 4.01 -13.66 3.02 -14 2 C-9.35150485 -0.3992233 -5.08913926 -0.19957409 0 0 Z " fill="#037FDC" transform="translate(421,381)"/>
<path d="M0 0 C5.05369046 -0.18048895 9.25693037 0.13488952 14.12109375 1.49609375 C16.19909078 2.08905302 16.19909078 2.08905302 19.1875 2.5 C22 3 22 3 24.25 3.9375 C28.37389471 5.53082296 32.66096293 6.20802042 37 7 C37 7.33 37 7.66 37 8 C30.13088744 8.31968424 24.04925857 7.11954104 17.375 5.5625 C15.36225812 5.1042418 13.34924464 4.6471746 11.3359375 4.19140625 C10.40749023 3.98016113 9.47904297 3.76891602 8.52246094 3.55126953 C5.69524845 2.93339828 2.86253812 2.42498433 0 2 C0 1.34 0 0.68 0 0 Z " fill="#DDE3EC" transform="translate(360,1122)"/>
<path d="M0 0 C2.0625 1.3125 2.0625 1.3125 3 3 C2.6875 5.1875 2.6875 5.1875 2 7 C-3.62431073 6.6186908 -6.90482403 6.22315022 -11 2 C-11 1.34 -11 0.68 -11 0 C-7.08106167 -1.30631278 -3.98737563 -0.93674313 0 0 Z " fill="#81DCFE" transform="translate(665,362)"/>
<path d="M0 0 C8.03501094 -0.63019694 8.03501094 -0.63019694 12.0625 2 C12.701875 2.66 13.34125 3.32 14 4 C13.67 4.99 13.34 5.98 13 7 C9.7 6.67 6.4 6.34 3 6 C2.67 4.68 2.34 3.36 2 2 C1.34 2 0.68 2 0 2 C0 1.34 0 0.68 0 0 Z " fill="#64CDFE" transform="translate(729,604)"/>
<path d="M0 0 C0.33 0 0.66 0 1 0 C1 9.9 1 19.8 1 30 C-2.97052863 22.05894274 -2.10876908 13.71361206 -2 5 C-1.67 5 -1.34 5 -1 5 C-0.67 3.35 -0.34 1.7 0 0 Z " fill="#BFCEE0" transform="translate(439,1090)"/>
<path d="M0 0 C9.14097026 1.47185114 18.04495196 3.68539536 27 6 C22.68020616 7.30482513 18.97240402 6.51290918 14.625 5.6875 C13.8825 5.55666016 13.14 5.42582031 12.375 5.29101562 C8.10792749 4.5107294 4.08930779 3.48643093 0 2 C0 1.34 0 0.68 0 0 Z " fill="#B6C5DA" transform="translate(408,1130)"/>
<path d="M0 0 C1.21236328 0.01353516 1.21236328 0.01353516 2.44921875 0.02734375 C3.37154297 0.04474609 3.37154297 0.04474609 4.3125 0.0625 C3.66796875 0.34867187 3.0234375 0.63484375 2.359375 0.9296875 C0.11365872 1.87668662 0.11365872 1.87668662 -0.4375 4.1875 C-0.52 4.80625 -0.6025 5.425 -0.6875 6.0625 C-0.0275 6.0625 0.6325 6.0625 1.3125 6.0625 C0.9825 6.7225 0.6525 7.3825 0.3125 8.0625 C-5.4375 4.4375 -5.4375 4.4375 -7.6875 1.0625 C-4.80538698 0.10179566 -2.98899956 -0.04331883 0 0 Z " fill="#0785EA" transform="translate(416.6875,380.9375)"/>
<path d="M0 0 C0.33 0 0.66 0 1 0 C0.67 3.3 0.34 6.6 0 10 C-2.64 9.67 -5.28 9.34 -8 9 C-8.33 8.01 -8.66 7.02 -9 6 C-6.69 6.33 -4.38 6.66 -2 7 C-1.34 4.69 -0.68 2.38 0 0 Z " fill="#2EB2FE" transform="translate(600,603)"/>
<path d="M0 0 C3.12290635 0.48578543 5.99580359 0.9986012 9 2 C9 2.66 9 3.32 9 4 C9.99 4 10.98 4 12 4 C11.67 4.99 11.34 5.98 11 7 C8.525 6.01 8.525 6.01 6 5 C6 4.34 6 3.68 6 3 C4.02 2.34 2.04 1.68 0 1 C0 0.67 0 0.34 0 0 Z " fill="#0281E0" transform="translate(476,1124)"/>
<path d="M0 0 C6.15234375 0.5859375 6.15234375 0.5859375 8 1 C8.33 1.66 8.66 2.32 9 3 C6.04335481 4.4783226 3.25770263 4.06032783 0 4 C0 2.68 0 1.36 0 0 Z " fill="#57C6FE" transform="translate(591,611)"/>
<path d="M0 0 C8.19256018 -0.4726477 8.19256018 -0.4726477 11.5625 1.5 C12.036875 1.995 12.51125 2.49 13 3 C12.67 3.66 12.34 4.32 12 5 C11.34 4.34 10.68 3.68 10 3 C8.08505313 2.79527165 8.08505313 2.79527165 6 2.9375 C2.19661017 3.09830508 2.19661017 3.09830508 0 2 C0 1.34 0 0.68 0 0 Z " fill="#80DDFD" transform="translate(729,604)"/>
<path d="M0 0 C0.598125 0.350625 1.19625 0.70125 1.8125 1.0625 C1.8125 2.0525 1.8125 3.0425 1.8125 4.0625 C-0.8275 3.7325 -3.4675 3.4025 -6.1875 3.0625 C-5.8575 2.0725 -5.5275 1.0825 -5.1875 0.0625 C-2.1875 -0.9375 -2.1875 -0.9375 0 0 Z " fill="#64CDFE" transform="translate(665.1875,364.9375)"/>
</svg>
